<svg width="20" height="18" viewBox="0 0 20 18" fill="none" xmlns="http://www.w3.org/2000/svg">
<path d="M0.617188 16.2656V1.21875C0.617188 0.984375 0.699219 0.782227 0.863281 0.612305C1.02734 0.442383 1.23535 0.357422 1.4873 0.357422C1.72754 0.357422 1.92969 0.442383 2.09375 0.612305C2.26367 0.782227 2.34863 0.984375 2.34863 1.21875V15.0439C2.34863 15.208 2.42773 15.29 2.58594 15.29H18.9775C19.2178 15.29 19.4229 15.3721 19.5928 15.5361C19.7686 15.7002 19.8564 15.9053 19.8564 16.1514C19.8564 16.3975 19.7686 16.6025 19.5928 16.7666C19.4229 16.9307 19.2178 17.0127 18.9775 17.0127H1.37305C1.14453 17.0127 0.959961 16.9424 0.819336 16.8018C0.68457 16.667 0.617188 16.4883 0.617188 16.2656ZM2.19922 11.4668L0.96875 10.2451L4.93262 6.22852C5.14355 6.00586 5.35156 5.84766 5.55664 5.75391C5.76758 5.66016 5.98145 5.61328 6.19824 5.61328C6.41504 5.61328 6.62891 5.66309 6.83984 5.7627C7.05078 5.85645 7.25879 6.01172 7.46387 6.22852L10.6016 9.47168C10.6777 9.55371 10.7539 9.59473 10.8301 9.59473C10.9121 9.59473 10.9912 9.55371 11.0674 9.47168L14.4775 5.99121L13.1152 4.62012C12.9863 4.49707 12.9219 4.36523 12.9219 4.22461C12.9219 4.08398 12.9717 3.95508 13.0713 3.83789C13.1709 3.7207 13.3115 3.63867 13.4932 3.5918L18.6523 2.27344C18.8105 2.23242 18.957 2.24707 19.0918 2.31738C19.2266 2.38184 19.3291 2.48145 19.3994 2.61621C19.4697 2.74512 19.4844 2.8916 19.4434 3.05566L18.1162 8.22363C18.0693 8.40527 17.9873 8.5459 17.8701 8.64551C17.7529 8.74512 17.624 8.79492 17.4834 8.79492C17.3428 8.79492 17.208 8.73047 17.0791 8.60156L15.708 7.22168L12.0957 10.8516C11.6797 11.2617 11.2578 11.4668 10.8301 11.4668C10.6074 11.4668 10.3906 11.417 10.1797 11.3174C9.96875 11.2178 9.76367 11.0625 9.56445 10.8516L6.42676 7.59961C6.35059 7.52344 6.27441 7.48535 6.19824 7.48535C6.11621 7.48535 6.03711 7.52344 5.96094 7.59961L2.19922 11.4668Z" fill="#007AFF"/>
</svg>
