<svg width="20" height="17" viewBox="0 0 20 17" fill="none" xmlns="http://www.w3.org/2000/svg">
<path d="M0.231445 15.1514C0.231445 14.9053 0.316406 14.7002 0.486328 14.5361C0.65625 14.3721 0.861328 14.29 1.10156 14.29H18.3809C18.6211 14.29 18.8262 14.3721 18.9961 14.5361C19.1719 14.7002 19.2598 14.9053 19.2598 15.1514C19.2598 15.3975 19.1719 15.6025 18.9961 15.7666C18.8262 15.9307 18.6211 16.0127 18.3809 16.0127H1.10156C0.861328 16.0127 0.65625 15.9307 0.486328 15.7666C0.316406 15.6025 0.231445 15.3975 0.231445 15.1514ZM1.10156 12.1631V5.08789C1.10156 4.83594 1.17773 4.63672 1.33008 4.49023C1.48242 4.33789 1.69043 4.26172 1.9541 4.26172H3.81738C4.0752 4.26172 4.28027 4.33789 4.43262 4.49023C4.58496 4.63672 4.66113 4.83594 4.66113 5.08789V12.1631C4.66113 12.415 4.58496 12.6143 4.43262 12.7607C4.28027 12.9072 4.0752 12.9805 3.81738 12.9805H1.9541C1.69043 12.9805 1.48242 12.9072 1.33008 12.7607C1.17773 12.6143 1.10156 12.415 1.10156 12.1631ZM5.67188 12.1631V1.29102C5.67188 1.0332 5.74805 0.831055 5.90039 0.68457C6.05273 0.538086 6.26074 0.464844 6.52441 0.464844H8.3877C8.64551 0.464844 8.85059 0.538086 9.00293 0.68457C9.16113 0.831055 9.24023 1.0332 9.24023 1.29102V12.1631C9.24023 12.415 9.16113 12.6143 9.00293 12.7607C8.85059 12.9072 8.64551 12.9805 8.3877 12.9805H6.52441C6.26074 12.9805 6.05273 12.9072 5.90039 12.7607C5.74805 12.6143 5.67188 12.415 5.67188 12.1631ZM10.2422 12.1631V3.25977C10.2422 3.00195 10.3184 2.7998 10.4707 2.65332C10.623 2.50684 10.8281 2.43359 11.0859 2.43359H12.958C13.2158 2.43359 13.4209 2.50684 13.5732 2.65332C13.7256 2.7998 13.8018 3.00195 13.8018 3.25977V12.1631C13.8018 12.415 13.7256 12.6143 13.5732 12.7607C13.4209 12.9072 13.2158 12.9805 12.958 12.9805H11.0859C10.8281 12.9805 10.623 12.9072 10.4707 12.7607C10.3184 12.6143 10.2422 12.415 10.2422 12.1631ZM14.8125 12.1631V6.87207C14.8125 6.61426 14.8887 6.41211 15.041 6.26562C15.1934 6.11328 15.4014 6.03711 15.665 6.03711H17.5283C17.7861 6.03711 17.9912 6.11328 18.1436 6.26562C18.3018 6.41211 18.3809 6.61426 18.3809 6.87207V12.1631C18.3809 12.415 18.3018 12.6143 18.1436 12.7607C17.9912 12.9072 17.7861 12.9805 17.5283 12.9805H15.665C15.4014 12.9805 15.1934 12.9072 15.041 12.7607C14.8887 12.6143 14.8125 12.415 14.8125 12.1631Z" fill="#007AFF"/>
</svg>
