<svg width="27" height="17" viewBox="0 0 27 17" fill="none" xmlns="http://www.w3.org/2000/svg">
<path d="M6.32812 6.94922C6.32812 7.18945 6.39844 7.38281 6.53906 7.5293C6.67969 7.66992 6.87598 7.74023 7.12793 7.74023H8.60449V9.17285C8.60449 9.41895 8.6748 9.61523 8.81543 9.76172C8.95605 9.9082 9.14355 9.98145 9.37793 9.98145C9.61816 9.98145 9.80566 9.9082 9.94043 9.76172C10.0811 9.61523 10.1514 9.41895 10.1514 9.17285V7.74023H11.5488C11.8125 7.74023 12.0205 7.66992 12.1729 7.5293C12.3252 7.38281 12.4014 7.18945 12.4014 6.94922C12.4014 6.70898 12.3252 6.51855 12.1729 6.37793C12.0205 6.2373 11.8125 6.16699 11.5488 6.16699H10.1514V4.73438C10.1514 4.48828 10.0811 4.29492 9.94043 4.1543C9.80566 4.00781 9.61816 3.93457 9.37793 3.93457C9.14355 3.93457 8.95605 4.00781 8.81543 4.1543C8.6748 4.29492 8.60449 4.48828 8.60449 4.73438V6.16699H7.12793C6.87598 6.16699 6.67969 6.2373 6.53906 6.37793C6.39844 6.51855 6.32812 6.70898 6.32812 6.94922ZM15.0029 8.20605C15.0029 8.56934 15.1289 8.87695 15.3809 9.12891C15.6328 9.38086 15.9404 9.50684 16.3037 9.50684C16.6729 9.50684 16.9805 9.38086 17.2266 9.12891C17.4785 8.87695 17.6045 8.56934 17.6045 8.20605C17.6045 7.83691 17.4785 7.52637 17.2266 7.27441C16.9805 7.02246 16.6729 6.89648 16.3037 6.89648C15.9404 6.89648 15.6328 7.02246 15.3809 7.27441C15.1289 7.52637 15.0029 7.83691 15.0029 8.20605ZM17.6221 5.56934C17.6221 5.93848 17.7451 6.24609 17.9912 6.49219C18.2432 6.73828 18.5508 6.86133 18.9141 6.86133C19.2832 6.86133 19.5908 6.73828 19.8369 6.49219C20.0889 6.24609 20.2148 5.93848 20.2148 5.56934C20.2148 5.2002 20.0889 4.88965 19.8369 4.6377C19.5908 4.38574 19.2832 4.25977 18.9141 4.25977C18.5508 4.25977 18.2432 4.38574 17.9912 4.6377C17.7451 4.88965 17.6221 5.2002 17.6221 5.56934ZM4.06934 16.7666C3.38965 16.7666 2.79199 16.626 2.27637 16.3447C1.76074 16.0635 1.35645 15.6621 1.06348 15.1406C0.776367 14.6191 0.632812 14.001 0.632812 13.2861C0.632812 12.8291 0.679688 12.3398 0.773438 11.8184C0.873047 11.2969 1.01074 10.7461 1.18652 10.166C1.3623 9.5625 1.5791 8.90625 1.83691 8.19727C2.09473 7.48242 2.37012 6.76465 2.66309 6.04395C2.96191 5.31738 3.26074 4.6377 3.55957 4.00488C3.81152 3.47168 4.05176 3.02344 4.28027 2.66016C4.51465 2.29688 4.81055 1.99805 5.16797 1.76367C5.52539 1.5293 6.02344 1.33887 6.66211 1.19238C7.51172 0.999023 8.51074 0.84668 9.65918 0.735352C10.8076 0.618164 12.0879 0.55957 13.5 0.55957C14.9121 0.55957 16.1924 0.618164 17.3408 0.735352C18.4893 0.84668 19.4854 0.999023 20.3291 1.19238C20.9736 1.33887 21.4746 1.5293 21.832 1.76367C22.1895 1.99805 22.4824 2.29688 22.7109 2.66016C22.9395 3.02344 23.1826 3.47168 23.4404 4.00488C23.7393 4.6377 24.0352 5.31738 24.3281 6.04395C24.627 6.76465 24.9053 7.48242 25.1631 8.19727C25.4209 8.90625 25.6377 9.5625 25.8135 10.166C25.9893 10.7461 26.124 11.2969 26.2178 11.8184C26.3174 12.3398 26.3672 12.8291 26.3672 13.2861C26.3672 14.001 26.2207 14.6191 25.9277 15.1406C25.6406 15.6621 25.2363 16.0635 24.7148 16.3447C24.1992 16.626 23.6045 16.7666 22.9307 16.7666C22.2803 16.7666 21.7207 16.6465 21.252 16.4062C20.7832 16.166 20.3525 15.8174 19.96 15.3604L18.3955 13.541C18.2783 13.4062 18.1611 13.3096 18.0439 13.251C17.9268 13.1924 17.8008 13.1631 17.666 13.1631H9.33398C9.19922 13.1631 9.07324 13.1924 8.95605 13.251C8.83887 13.3096 8.72168 13.4062 8.60449 13.541L7.04004 15.3604C6.64746 15.8232 6.2168 16.1719 5.74805 16.4062C5.2793 16.6465 4.71973 16.7666 4.06934 16.7666Z" fill="#007AFF"/>
</svg>
