<svg width="17" height="22" viewBox="0 0 17 22" fill="none" xmlns="http://www.w3.org/2000/svg">
<path d="M4.90527 10.1162C4.68848 10.1162 4.50098 10.0371 4.34277 9.87891C4.18457 9.71484 4.10547 9.52734 4.10547 9.31641C4.10547 9.09375 4.18457 8.90625 4.34277 8.75391C4.50098 8.5957 4.68848 8.5166 4.90527 8.5166C5.12793 8.5166 5.31543 8.59277 5.46777 8.74512C5.62598 8.89746 5.70508 9.08789 5.70508 9.31641C5.70508 9.5332 5.62598 9.7207 5.46777 9.87891C5.31543 10.0371 5.12793 10.1162 4.90527 10.1162ZM4.90527 13.2188C4.68262 13.2188 4.49219 13.1426 4.33398 12.9902C4.18164 12.832 4.10547 12.6416 4.10547 12.4189C4.10547 12.2021 4.18164 12.0176 4.33398 11.8652C4.49219 11.707 4.68262 11.6279 4.90527 11.6279C5.12207 11.6279 5.30957 11.7041 5.46777 11.8564C5.62598 12.0088 5.70508 12.1963 5.70508 12.4189C5.70508 12.6416 5.62598 12.832 5.46777 12.9902C5.31543 13.1426 5.12793 13.2188 4.90527 13.2188ZM4.90527 16.5059C4.68848 16.5059 4.50098 16.4268 4.34277 16.2686C4.18457 16.1045 4.10547 15.917 4.10547 15.7061C4.10547 15.4834 4.18457 15.2959 4.34277 15.1436C4.50098 14.9854 4.68848 14.9062 4.90527 14.9062C5.12793 14.9062 5.31543 14.9824 5.46777 15.1348C5.62598 15.2871 5.70508 15.4775 5.70508 15.7061C5.70508 15.9229 5.62598 16.1104 5.46777 16.2686C5.31543 16.4268 5.12793 16.5059 4.90527 16.5059ZM7.31348 9.93164C7.14355 9.93164 6.99707 9.87012 6.87402 9.74707C6.75098 9.62402 6.68945 9.48047 6.68945 9.31641C6.68945 9.14062 6.75098 8.99121 6.87402 8.86816C6.99707 8.74512 7.14355 8.68359 7.31348 8.68359H12.2793C12.4492 8.68359 12.5928 8.74512 12.71 8.86816C12.833 8.99121 12.8945 9.14062 12.8945 9.31641C12.8945 9.48047 12.833 9.62402 12.71 9.74707C12.5928 9.87012 12.4492 9.93164 12.2793 9.93164H7.31348ZM7.31348 13.043C7.1377 13.043 6.98828 12.9814 6.86523 12.8584C6.74805 12.7354 6.68945 12.5889 6.68945 12.4189C6.68945 12.249 6.74805 12.1055 6.86523 11.9883C6.98828 11.8711 7.1377 11.8125 7.31348 11.8125H12.2793C12.4492 11.8125 12.5928 11.8711 12.71 11.9883C12.833 12.1055 12.8945 12.249 12.8945 12.4189C12.8945 12.5889 12.8359 12.7354 12.7188 12.8584C12.6016 12.9814 12.4551 13.043 12.2793 13.043H7.31348ZM7.31348 16.3213C7.14355 16.3213 6.99707 16.2598 6.87402 16.1367C6.75098 16.0137 6.68945 15.8701 6.68945 15.7061C6.68945 15.5303 6.74805 15.3838 6.86523 15.2666C6.98828 15.1494 7.1377 15.0908 7.31348 15.0908H12.2793C12.4492 15.0908 12.5928 15.1494 12.71 15.2666C12.833 15.3838 12.8945 15.5303 12.8945 15.7061C12.8945 15.8701 12.833 16.0137 12.71 16.1367C12.5928 16.2598 12.4492 16.3213 12.2793 16.3213H7.31348ZM3.83301 21.876C2.90137 21.876 2.19238 21.6299 1.70605 21.1377C1.21973 20.6455 0.976562 19.9277 0.976562 18.9844V5.68652C0.976562 4.75488 1.21094 4.04004 1.67969 3.54199C2.1543 3.03809 2.8457 2.78613 3.75391 2.78613H3.95605C3.93848 2.83887 3.92676 2.89746 3.9209 2.96191C3.91504 3.02051 3.91211 3.08203 3.91211 3.14648V3.96387C3.91211 4.16895 3.93262 4.33887 3.97363 4.47363H3.79785C3.42285 4.47363 3.13867 4.58496 2.94531 4.80762C2.75781 5.03027 2.66406 5.3291 2.66406 5.7041V18.9668C2.66406 19.3594 2.76953 19.6611 2.98047 19.8721C3.19141 20.083 3.50195 20.1885 3.91211 20.1885H13.0879C13.498 20.1885 13.8086 20.083 14.0195 19.8721C14.2305 19.6611 14.3359 19.3594 14.3359 18.9668V5.7041C14.3359 5.3291 14.2393 5.03027 14.0459 4.80762C13.8584 4.58496 13.5801 4.47363 13.2109 4.47363H13.0176C13.0645 4.33887 13.0879 4.16895 13.0879 3.96387V3.14648C13.0879 3.08203 13.085 3.02051 13.0791 2.96191C13.0732 2.89746 13.0615 2.83887 13.0439 2.78613H13.2461C14.1543 2.78613 14.8428 3.03809 15.3115 3.54199C15.7861 4.04004 16.0234 4.75488 16.0234 5.68652V18.9844C16.0234 19.9277 15.7803 20.6455 15.2939 21.1377C14.8076 21.6299 14.0957 21.876 13.1582 21.876H3.83301ZM5.79297 4.97461C5.52344 4.97461 5.3125 4.89551 5.16016 4.7373C5.01367 4.5791 4.94043 4.35645 4.94043 4.06934V3.14648C4.94043 2.85937 5.01367 2.63672 5.16016 2.47852C5.3125 2.32031 5.52344 2.24121 5.79297 2.24121H6.54004C6.56934 1.73145 6.77148 1.29785 7.14648 0.94043C7.52148 0.577148 7.97266 0.395508 8.5 0.395508C9.02148 0.395508 9.46973 0.577148 9.84473 0.94043C10.2256 1.29785 10.4307 1.73145 10.46 2.24121H11.207C11.4766 2.24121 11.6846 2.32031 11.8311 2.47852C11.9834 2.63672 12.0596 2.85937 12.0596 3.14648V4.06934C12.0596 4.35645 11.9834 4.5791 11.8311 4.7373C11.6846 4.89551 11.4766 4.97461 11.207 4.97461H5.79297ZM8.5 3.09375C8.7168 3.09375 8.89844 3.01758 9.04492 2.86523C9.19727 2.70703 9.27344 2.52539 9.27344 2.32031C9.27344 2.10352 9.19727 1.91895 9.04492 1.7666C8.89844 1.61426 8.7168 1.53809 8.5 1.53809C8.2832 1.53809 8.09863 1.61426 7.94629 1.7666C7.7998 1.91895 7.72656 2.10352 7.72656 2.32031C7.72656 2.52539 7.7998 2.70703 7.94629 2.86523C8.09863 3.01758 8.2832 3.09375 8.5 3.09375Z" fill="#007AFF"/>
</svg>
